<svg width="12" height="18" viewBox="0 0 12 18" fill="none" xmlns="http://www.w3.org/2000/svg">
<path d="M7.73334 7.66665H4.26668C3.60001 7.66665 3.06668 7.13332 3.06668 6.46665C3.06668 5.79998 3.60001 5.26665 4.26668 5.26665H9.20001C10 5.26665 10.5333 4.73332 10.5333 3.93332C10.5333 3.13332 10 2.59998 9.20001 2.59998H7.33334V1.39998C7.33334 0.599984 6.80001 0.0666504 6.00001 0.0666504C5.20001 0.0666504 4.66668 0.599984 4.66668 1.39998V2.59998H4.26668C2.13334 2.59998 0.400009 4.33332 0.400009 6.46665C0.400009 8.59998 2.13334 10.3333 4.26668 10.3333H7.60001C8.26668 10.3333 8.80001 10.8666 8.80001 11.5333C8.80001 12.2 8.26668 12.7333 7.60001 12.7333H2.66668C1.86668 12.7333 1.33334 13.2667 1.33334 14.0667C1.33334 14.8667 1.86668 15.4 2.66668 15.4H4.66668V16.6C4.66668 17.4 5.20001 17.9333 6.00001 17.9333C6.80001 17.9333 7.33334 17.4 7.33334 16.6V15.4H7.73334C9.86668 15.4 11.6 13.6667 11.6 11.5333C11.6 9.39998 9.86668 7.66665 7.73334 7.66665Z" fill="#FD9222"/>
</svg>
